<svg width="50" height="50" viewBox="0 0 50 50" fill="none" xmlns="http://www.w3.org/2000/svg">
<circle cx="25" cy="25" r="25" transform="rotate(180 25 25)" fill="#0C1117" fill-opacity="0.4"/>
<path d="M17.4007 10.1362C17.1438 10.367 17 10.6769 17 10.9995C17 11.3221 17.1438 11.632 17.4007 11.8628L31.7518 24.7832L17.4007 37.7011C17.1438 37.9319 17 38.2417 17 38.5643C17 38.887 17.1438 39.1968 17.4007 39.4276C17.5255 39.5401 17.6748 39.6296 17.8397 39.6907C18.0046 39.7517 18.1818 39.7832 18.3608 39.7832C18.5397 39.7832 18.7169 39.7517 18.8818 39.6907C19.0467 39.6296 19.196 39.5401 19.3208 39.4276L34.5819 25.6852C34.85 25.4439 35 25.1202 35 24.7832C35 24.4462 34.85 24.1225 34.5819 23.8812L19.3208 10.1388C19.196 10.0263 19.0467 9.93683 18.8818 9.87575C18.7169 9.81467 18.5397 9.7832 18.3608 9.7832C18.1818 9.7832 18.0046 9.81467 17.8397 9.87575C17.6748 9.93683 17.5255 10.0263 17.4007 10.1388L17.4007 10.1362Z" fill="white"/>
</svg>
