<svg width="50" height="50" viewBox="0 0 50 50" fill="none" xmlns="http://www.w3.org/2000/svg">
<rect x="3.42291" y="2.61236" width="44.1054" height="44.1065" rx="22.0527" fill="#3A0606" fill-opacity="0.97" stroke="url(#paint0_linear_1489_62)" stroke-width="4.94347"/>
<g filter="url(#filter0_di_1489_62)">
<path d="M27.4719 32.2373C27.1999 31.5173 26.9439 30.8133 26.7039 30.1253C26.4639 29.4213 26.2159 28.7093 25.9599 27.9893H18.4239L16.9119 32.2373H14.4879C15.1279 30.4773 15.7279 28.8533 16.2879 27.3653C16.8479 25.8613 17.3919 24.4373 17.9199 23.0933C18.4639 21.7493 18.9999 20.4693 19.5279 19.2533C20.0559 18.0213 20.6079 16.8053 21.1839 15.6053H23.3199C23.8959 16.8053 24.4479 18.0213 24.9759 19.2533C25.5039 20.4693 26.0319 21.7493 26.5599 23.0933C27.1039 24.4373 27.6559 25.8613 28.2159 27.3653C28.7759 28.8533 29.3759 30.4773 30.0159 32.2373H27.4719ZM25.2879 26.0693C24.7759 24.6773 24.2639 23.3333 23.7519 22.0373C23.2559 20.7253 22.7359 19.4693 22.1919 18.2693C21.6319 19.4693 21.0959 20.7253 20.5839 22.0373C20.0879 23.3333 19.5919 24.6773 19.0959 26.0693H25.2879ZM32.274 15.6053H34.602V32.2373H32.274V15.6053Z" fill="url(#paint1_linear_1489_62)"/>
</g>
<defs>
<filter id="filter0_di_1489_62" x="10.286" y="11.8979" width="28.5179" height="25.0357" filterUnits="userSpaceOnUse" color-interpolation-filters="sRGB">
<feFlood flood-opacity="0" result="BackgroundImageFix"/>
<feColorMatrix in="SourceAlpha" type="matrix" values="0 0 0 0 0 0 0 0 0 0 0 0 0 0 0 0 0 0 127 0" result="hardAlpha"/>
<feOffset dy="0.494347"/>
<feGaussianBlur stdDeviation="2.10097"/>
<feColorMatrix type="matrix" values="0 0 0 0 0 0 0 0 0 0 0 0 0 0 0 0 0 0 0.3 0"/>
<feBlend mode="normal" in2="BackgroundImageFix" result="effect1_dropShadow_1489_62"/>
<feBlend mode="normal" in="SourceGraphic" in2="effect1_dropShadow_1489_62" result="shape"/>
<feColorMatrix in="SourceAlpha" type="matrix" values="0 0 0 0 0 0 0 0 0 0 0 0 0 0 0 0 0 0 127 0" result="hardAlpha"/>
<feOffset dx="0.865107" dy="0.494347"/>
<feGaussianBlur stdDeviation="0.55614"/>
<feComposite in2="hardAlpha" operator="arithmetic" k2="-1" k3="1"/>
<feColorMatrix type="matrix" values="0 0 0 0 1 0 0 0 0 1 0 0 0 0 1 0 0 0 0.15 0"/>
<feBlend mode="normal" in2="shape" result="effect2_innerShadow_1489_62"/>
</filter>
<linearGradient id="paint0_linear_1489_62" x1="0.951172" y1="0.140625" x2="50.0012" y2="49.1895" gradientUnits="userSpaceOnUse">
<stop stop-color="#FFB670"/>
<stop offset="1" stop-color="#EB7206"/>
</linearGradient>
<linearGradient id="paint1_linear_1489_62" x1="0.951172" y1="9.2373" x2="24.4048" y2="51.0783" gradientUnits="userSpaceOnUse">
<stop stop-color="#FFB670"/>
<stop offset="1" stop-color="#EB7206"/>
</linearGradient>
</defs>
</svg>
