<svg width="51" height="50" viewBox="0 0 51 50" fill="none" xmlns="http://www.w3.org/2000/svg">
<rect x="3.61302" y="2.77806" width="43.7737" height="43.7751" rx="21.8869" fill="#03192C" fill-opacity="0.97" stroke="url(#paint0_linear_1489_65)" stroke-width="5.27487"/>
<g filter="url(#filter0_i_1489_65)">
<path d="M19.3757 15.202C21.7117 15.202 23.5037 15.65 24.7517 16.546C26.0157 17.426 26.6477 18.746 26.6477 20.506C26.6477 21.466 26.4717 22.29 26.1197 22.978C25.7837 23.65 25.2877 24.202 24.6317 24.634C23.9917 25.05 23.2077 25.354 22.2797 25.546C21.3517 25.738 20.3037 25.834 19.1357 25.834H17.2877V32.002H14.9597V15.61C15.6157 15.45 16.3437 15.346 17.1437 15.298C17.9597 15.234 18.7037 15.202 19.3757 15.202ZM19.5677 17.242C18.5757 17.242 17.8157 17.266 17.2877 17.314V23.842H19.0397C19.8397 23.842 20.5597 23.794 21.1997 23.698C21.8397 23.586 22.3757 23.41 22.8077 23.17C23.2557 22.914 23.5997 22.57 23.8397 22.138C24.0797 21.706 24.1997 21.154 24.1997 20.482C24.1997 19.842 24.0717 19.314 23.8157 18.898C23.5757 18.482 23.2397 18.154 22.8077 17.914C22.3917 17.658 21.9037 17.482 21.3437 17.386C20.7837 17.29 20.1917 17.242 19.5677 17.242ZM32.3212 30.394C33.2332 30.394 33.9052 30.274 34.3372 30.034C34.7852 29.794 35.0092 29.41 35.0092 28.882C35.0092 28.338 34.7932 27.906 34.3612 27.586C33.9292 27.266 33.2172 26.906 32.2252 26.506C31.7452 26.314 31.2812 26.122 30.8332 25.93C30.4012 25.722 30.0252 25.482 29.7052 25.21C29.3852 24.938 29.1292 24.61 28.9372 24.226C28.7452 23.842 28.6492 23.37 28.6492 22.81C28.6492 21.706 29.0572 20.834 29.8732 20.194C30.6892 19.538 31.8012 19.21 33.2092 19.21C33.5612 19.21 33.9132 19.234 34.2652 19.282C34.6172 19.314 34.9452 19.362 35.2492 19.426C35.5532 19.474 35.8172 19.53 36.0412 19.594C36.2812 19.658 36.4652 19.714 36.5932 19.762L36.1852 21.682C35.9452 21.554 35.5692 21.426 35.0572 21.298C34.5452 21.154 33.9292 21.082 33.2092 21.082C32.5852 21.082 32.0412 21.21 31.5772 21.466C31.1132 21.706 30.8812 22.09 30.8812 22.618C30.8812 22.89 30.9292 23.13 31.0252 23.338C31.1372 23.546 31.2972 23.738 31.5052 23.914C31.7292 24.074 32.0012 24.226 32.3212 24.37C32.6412 24.514 33.0252 24.666 33.4732 24.826C34.0652 25.05 34.5932 25.274 35.0572 25.498C35.5212 25.706 35.9132 25.954 36.2332 26.242C36.5692 26.53 36.8252 26.882 37.0012 27.298C37.1772 27.698 37.2652 28.194 37.2652 28.786C37.2652 29.938 36.8332 30.81 35.9692 31.402C35.1212 31.994 33.9052 32.29 32.3212 32.29C31.2172 32.29 30.3532 32.194 29.7292 32.002C29.1052 31.826 28.6812 31.69 28.4572 31.594L28.8652 29.674C29.1212 29.77 29.5292 29.914 30.0892 30.106C30.6492 30.298 31.3932 30.394 32.3212 30.394Z" fill="url(#paint1_linear_1489_65)"/>
</g>
<defs>
<filter id="filter0_i_1489_65" x="14.9597" y="15.2021" width="23.1706" height="17.5822" filterUnits="userSpaceOnUse" color-interpolation-filters="sRGB">
<feFlood flood-opacity="0" result="BackgroundImageFix"/>
<feBlend mode="normal" in="SourceGraphic" in2="BackgroundImageFix" result="shape"/>
<feColorMatrix in="SourceAlpha" type="matrix" values="0 0 0 0 0 0 0 0 0 0 0 0 0 0 0 0 0 0 127 0" result="hardAlpha"/>
<feOffset dx="0.865107" dy="0.494347"/>
<feGaussianBlur stdDeviation="0.55614"/>
<feComposite in2="hardAlpha" operator="arithmetic" k2="-1" k3="1"/>
<feColorMatrix type="matrix" values="0 0 0 0 1 0 0 0 0 1 0 0 0 0 1 0 0 0 0.15 0"/>
<feBlend mode="normal" in2="shape" result="effect1_innerShadow_1489_65"/>
</filter>
<linearGradient id="paint0_linear_1489_65" x1="0.975586" y1="0.140625" x2="50.0256" y2="49.1892" gradientUnits="userSpaceOnUse">
<stop stop-color="#00C2FF"/>
<stop offset="1" stop-color="#2F80ED"/>
</linearGradient>
<linearGradient id="paint1_linear_1489_65" x1="2.3252" y1="10.002" x2="24.5379" y2="49.6291" gradientUnits="userSpaceOnUse">
<stop stop-color="#00C2FF"/>
<stop offset="1" stop-color="#2F80ED"/>
</linearGradient>
</defs>
</svg>
