<svg width="30" height="18" viewBox="0 0 30 18" fill="none" xmlns="http://www.w3.org/2000/svg">
<path d="M21.915 12.883C21.5823 12.8828 21.2633 12.7505 21.0282 12.5151C20.7931 12.2798 20.6611 11.9607 20.6612 11.628C20.6614 11.2953 20.7937 10.9763 21.0291 10.7412C21.2644 10.5061 21.5836 10.3741 21.9163 10.3742C22.2489 10.3742 22.568 10.5064 22.8032 10.7416C23.0385 10.9769 23.1706 11.2959 23.1706 11.6286C23.1706 11.9613 23.0385 12.2803 22.8032 12.5156C22.568 12.7508 22.2489 12.883 21.9163 12.883H21.915ZM8.11 12.883C7.94527 12.8829 7.78218 12.8504 7.63002 12.7873C7.47786 12.7241 7.33963 12.6317 7.22321 12.5151C6.98808 12.2798 6.85608 11.9607 6.85625 11.628C6.85642 11.2953 6.98873 10.9763 7.22409 10.7412C7.45945 10.5061 7.77857 10.3741 8.11125 10.3742C8.44393 10.3742 8.76299 10.5064 8.99823 10.7416C9.23347 10.9769 9.36562 11.2959 9.36562 11.6286C9.36562 11.9613 9.23347 12.2803 8.99823 12.5156C8.76299 12.7508 8.44393 12.883 8.11125 12.883H8.11ZM22.36 5.36048L24.8675 1.03673C24.935 0.917212 24.9522 0.775793 24.9154 0.64358C24.8786 0.511367 24.7908 0.39919 24.6712 0.331725C24.5517 0.264261 24.4103 0.247036 24.2781 0.28384C24.1459 0.320644 24.0337 0.408462 23.9663 0.527975L21.4325 4.90298C19.4202 3.9832 17.2325 3.51068 15.02 3.51797C12.7075 3.51797 10.5262 4.01547 8.59375 4.89047L6.06 0.515475C6.0266 0.45638 5.98188 0.404444 5.9284 0.362631C5.87492 0.320818 5.81374 0.289947 5.74833 0.271782C5.68292 0.253616 5.61458 0.248512 5.5472 0.256759C5.47982 0.265007 5.41472 0.286445 5.35563 0.31985C5.29653 0.353255 5.24459 0.397973 5.20278 0.451449C5.16097 0.504926 5.1301 0.566115 5.11193 0.631522C5.09377 0.696929 5.08866 0.765274 5.09691 0.832654C5.10516 0.900034 5.12659 0.96513 5.16 1.02422L7.65375 5.34672C3.37 7.68422 0.43125 12.0217 0 17.1542H30C29.5825 12.0342 26.6562 7.69798 22.36 5.36048Z" fill="white"/>
</svg>
