<svg width="33" height="34" viewBox="0 0 33 34" fill="none" xmlns="http://www.w3.org/2000/svg">
<path fill-rule="evenodd" clip-rule="evenodd" d="M30.2851 17.12C30.2851 13.2449 28.8188 9.52852 26.2086 6.78841C23.5985 4.04831 20.0583 2.50893 16.367 2.50893C12.6757 2.50893 9.13558 4.04831 6.52543 6.78841C3.91528 9.52852 2.44891 13.2449 2.44891 17.12C2.44891 20.9951 3.91527 24.7115 6.52543 27.4516C9.13558 30.1917 12.6757 31.7311 16.367 31.7311C20.0583 31.7311 23.5985 30.1917 26.2086 27.4516C28.8188 24.7115 30.2851 20.9951 30.2851 17.12ZM0.460603 17.12C0.460604 12.6913 2.13645 8.44402 5.11948 5.31247C8.10252 2.18092 12.1484 0.421633 16.367 0.421633C20.5857 0.421634 24.6315 2.18092 27.6146 5.31247C30.5976 8.44402 32.2734 12.6913 32.2734 17.12C32.2734 21.5487 30.5976 25.796 27.6146 28.9275C24.6315 32.0591 20.5857 33.8184 16.367 33.8184C12.1484 33.8184 8.10251 32.0591 5.11948 28.9275C2.13645 25.796 0.460603 21.5487 0.460603 17.12ZM15.3729 24.4255C15.3729 24.7023 15.4776 24.9678 15.664 25.1635C15.8505 25.3592 16.1034 25.4692 16.367 25.4692C16.6307 25.4692 16.8836 25.3592 17.07 25.1635C17.2564 24.9678 17.3612 24.7023 17.3612 24.4255L17.3612 12.3338L21.6281 16.8153C21.8147 17.0112 22.0679 17.1213 22.3319 17.1213C22.5959 17.1213 22.8491 17.0112 23.0358 16.8153C23.2225 16.6193 23.3273 16.3535 23.3273 16.0763C23.3273 15.7992 23.2225 15.5334 23.0358 15.3374L17.0709 9.07556C16.9785 8.97837 16.8688 8.90126 16.748 8.84864C16.6273 8.79603 16.4978 8.76895 16.367 8.76895C16.2363 8.76895 16.1068 8.79603 15.986 8.84864C15.8652 8.90126 15.7555 8.97837 15.6632 9.07556L9.69826 15.3374C9.51158 15.5334 9.40671 15.7992 9.40671 16.0763C9.40671 16.3535 9.51158 16.6193 9.69826 16.8153C9.88493 17.0112 10.1381 17.1213 10.4021 17.1213C10.6661 17.1213 10.9193 17.0112 11.106 16.8153L15.3729 12.3338L15.3729 24.4255Z" fill="#F24E1E"/>
</svg>
