<svg width="51" height="50" viewBox="0 0 51 50" fill="none" xmlns="http://www.w3.org/2000/svg">
<g clip-path="url(#clip0_1696_232)">
<path d="M10.9842 0H39.0842C45.1318 0 50.0342 4.90234 50.0342 10.95V39.05C50.0342 45.0977 45.1318 50 39.0842 50H10.9842C4.93652 50 0.0341797 45.0977 0.0341797 39.05V10.95C0.0341797 4.90234 4.93652 0 10.9842 0Z" fill="url(#paint0_linear_1696_232)"/>
<path d="M16.0581 36.2915L16.0628 36.293L14.3532 39.254C13.7292 40.3348 12.3472 40.7051 11.2663 40.0811C10.1856 39.4571 9.81514 38.0751 10.4392 36.9942L11.6985 34.8129L11.8194 34.6036C12.0353 34.2934 12.5679 33.7579 13.6333 33.8587C13.6333 33.8587 16.1405 34.1307 16.322 35.4338C16.322 35.4338 16.3466 35.8626 16.0581 36.2915V36.2915ZM40.3048 28.729H34.9739C34.6108 28.7045 34.4524 28.5749 34.3899 28.4995L34.386 28.4926L28.6796 18.6087L28.6722 18.6135L28.33 18.1229C27.769 17.2651 26.8784 19.4588 26.8784 19.4588C25.8149 21.9034 27.0294 24.6825 27.4526 25.5225L35.3788 39.251C36.0026 40.3317 37.3847 40.7022 38.4657 40.078C39.5464 39.454 39.9169 38.0719 39.2927 36.9911L37.3108 33.5583C37.2724 33.4751 37.2056 33.2493 37.612 33.2483H40.3048C41.5528 33.2483 42.5645 32.2366 42.5645 30.9885C42.5645 29.7405 41.5528 28.7288 40.3048 28.7288V28.729ZM29.9505 31.8008C29.9505 31.8008 30.2351 33.2483 29.1341 33.2483H9.42725C8.1792 33.2483 7.16748 32.2366 7.16748 30.9885C7.16748 29.7405 8.1792 28.7288 9.42725 28.7288H14.4937C15.3116 28.6815 15.5054 28.2092 15.5054 28.2092L15.5101 28.2116L22.1233 16.7569L22.1214 16.7565C22.2419 16.5352 22.1415 16.326 22.1241 16.293L19.9399 12.51C19.3159 11.4294 19.6862 10.0471 20.7671 9.4233C21.8479 8.79928 23.23 9.16939 23.854 10.2503L24.8669 12.0047L25.878 10.2534C26.5021 9.17271 27.8841 8.80221 28.9649 9.42643C30.0458 10.0504 30.4161 11.4323 29.7921 12.5131L20.5894 28.4526C20.5491 28.5497 20.5368 28.702 20.8362 28.7288H26.337L26.3382 28.7825C26.3382 28.7825 29.5175 28.8319 29.9505 31.8008Z" fill="white"/>
</g>
<defs>
<linearGradient id="paint0_linear_1696_232" x1="25.0342" y1="0" x2="25.0342" y2="50" gradientUnits="userSpaceOnUse">
<stop stop-color="#17C9FB"/>
<stop offset="1" stop-color="#1A74E8"/>
</linearGradient>
<clipPath id="clip0_1696_232">
<rect width="50" height="50" fill="white" transform="translate(0.0341797)"/>
</clipPath>
</defs>
</svg>
