<svg width="31" height="33" viewBox="0 0 31 33" fill="none" xmlns="http://www.w3.org/2000/svg">
<path fill-rule="evenodd" clip-rule="evenodd" d="M4.03125 0.731445C1.82211 0.731445 0.03125 2.5223 0.03125 4.73144V28.8122C0.03125 31.0214 1.82211 32.8122 4.03125 32.8122H26.9688C29.1779 32.8122 30.9688 31.0214 30.9688 28.8122V4.73145C30.9688 2.52231 29.1779 0.731445 26.9688 0.731445H4.03125ZM4.84375 3.64788C3.73918 3.64788 2.84375 4.54331 2.84375 5.64788V27.8958C2.84375 29.0004 3.73918 29.8958 4.84375 29.8958H26.1562C27.2608 29.8958 28.1562 29.0004 28.1562 27.8958V5.64788C28.1562 4.54331 27.2608 3.64788 26.1562 3.64788H4.84375Z" fill="white"/>
<path d="M18.4053 11.7938H23.1463V12.951H18.4053V11.7938ZM13.6547 16.3724C14.7027 15.8679 15.2517 15.1004 15.2517 13.9145C15.2517 11.569 13.5168 11 11.5134 11H6V22.7729H11.6679C13.7925 22.7729 15.7864 21.7448 15.7864 19.3539C15.7864 17.8763 15.0924 16.7836 13.6547 16.3724ZM8.57136 13.0084H10.9835C11.9127 13.0084 12.7468 13.269 12.7468 14.3545C12.7468 15.3539 12.0981 15.7555 11.1784 15.7555H8.57136V13.0084ZM11.3162 20.7741H8.56898V17.532H11.3709C12.5021 17.532 13.2174 18.0078 13.2174 19.2128C13.2174 20.3987 12.3642 20.7741 11.3162 20.7741ZM25 18.6342C25 16.1118 23.5337 14.0102 20.8816 14.0102C18.3031 14.0102 16.5492 15.9635 16.5492 18.5242C16.5492 21.1781 18.2104 23 20.8816 23C22.9039 23 24.2134 22.0843 24.8432 20.1309H22.7922C22.5689 20.8601 21.661 21.2427 20.9552 21.2427C19.5911 21.2427 18.8782 20.4393 18.8782 19.0741H24.9834C24.9905 18.9331 25 18.7848 25 18.6342ZM18.8782 17.5965C18.9518 16.4752 19.6957 15.7747 20.8079 15.7747C21.9771 15.7747 22.5617 16.4656 22.6639 17.5965H18.8782Z" fill="white"/>
</svg>
