<svg width="53" height="50" viewBox="0 0 53 50" fill="none" xmlns="http://www.w3.org/2000/svg">
<path d="M26.5732 24.8725H26.4952C23.3986 24.8725 20.6712 24.115 19.0566 25.5425C18.6179 25.9173 18.2685 26.3786 18.032 26.895C17.7956 27.4114 17.6777 27.9708 17.6864 28.535C17.6864 33.165 21.5422 33.735 26.4978 33.735H26.5732C31.5262 33.735 35.3846 33.1625 35.3846 28.535C35.3846 27.4275 34.979 26.395 34.0144 25.5425C32.3972 24.115 29.6698 24.8725 26.5732 24.8725ZM22.356 31.2C21.4122 31.2 20.6504 30.18 20.6504 28.925C20.6504 27.67 21.4122 26.655 22.356 26.655C23.2998 26.655 24.0642 27.67 24.0642 28.925C24.0668 30.18 23.3024 31.2 22.356 31.2ZM30.7098 31.2C29.766 31.2 29.0016 30.18 29.0016 28.925C29.0016 27.67 29.766 26.655 30.7098 26.655C31.651 26.655 32.4154 27.67 32.4154 28.925C32.418 30.18 31.6536 31.2 30.7098 31.2ZM26.5342 1C12.749 1 1.57422 11.745 1.57422 25C1.57422 38.255 12.749 49 26.5342 49C40.3194 49 51.4942 38.255 51.4942 25C51.4942 11.745 40.3194 1 26.5342 1ZM28.8118 34.8475C28.3646 34.8475 27.4754 34.8475 26.5342 34.8525C25.593 34.8475 24.7038 34.8475 24.2566 34.8475C22.2806 34.8475 14.4494 34.7 14.4494 25.625C14.4494 23.54 15.193 22.0125 16.4124 20.7375C16.22 20.2775 16.2096 17.6575 17.2444 15.1475C17.2444 15.1475 19.626 15.3975 23.227 17.775C23.9784 17.5725 25.2576 17.47 26.5342 17.47C27.8108 17.47 29.0874 17.5725 29.844 17.7725C33.445 15.395 35.8266 15.145 35.8266 15.145C36.8614 17.655 36.8536 20.2775 36.6586 20.735C37.878 22.01 38.6216 23.5375 38.6216 25.6225C38.619 34.7025 30.7878 34.8475 28.8118 34.8475Z" fill="white"/>
</svg>
