<svg width="47" height="49" viewBox="0 0 47 49" fill="none" xmlns="http://www.w3.org/2000/svg">
<path d="M34.8041 32C40.7188 28.8728 45.2031 26.4901 45.5896 26.3051C46.8256 25.6717 48.1027 23.9963 45.5896 22.6949C44.7781 22.2857 40.4093 19.9769 34.8041 17L26.5342 24.5L34.8041 32Z" fill="#FFD900"/>
<path d="M26.5342 24L2.03418 48.9809C2.62323 49.0581 3.28875 48.9037 4.07372 48.478C5.72099 47.5883 23.1828 38.1759 35.0342 31.7476L26.5342 24Z" fill="#F43249"/>
<path d="M27.0342 24.5L35.0342 17C35.0342 17 5.87427 1.31096 4.10958 0.416946C3.44568 0.0410357 2.70066 -0.0701029 2.03418 0.0410358L27.0342 24.5Z" fill="#00EE76"/>
<path d="M27.0342 24.4244L1.91528 0C0.895777 0.228682 0.0341797 1.10301 0.0341797 2.89039V46.0709C0.0341797 47.7079 0.700973 48.8867 1.95389 49L27.0338 24.424L27.0342 24.4244Z" fill="#00D3FF"/>
</svg>
