<svg width="31" height="33" viewBox="0 0 31 33" fill="none" xmlns="http://www.w3.org/2000/svg">
<path d="M23.8854 11.1212L21.1267 23.3198C20.9185 24.1807 20.3757 24.395 19.6044 23.9894L15.401 21.0851L13.3728 22.9142C13.1483 23.1246 12.9606 23.3006 12.528 23.3006L12.83 19.2867L20.6206 12.6862C20.9593 12.403 20.5472 12.2461 20.0942 12.5293L10.463 18.2153L6.31671 16.9985C5.4148 16.7345 5.39848 16.1529 6.50443 15.7473L22.7223 9.88905C23.4732 9.62503 24.1303 10.0459 23.8854 11.1212Z" fill="#F24E1E"/>
<path fill-rule="evenodd" clip-rule="evenodd" d="M4.03125 0.732422C1.82211 0.732422 0.03125 2.52328 0.03125 4.73242V28.8132C0.03125 31.0224 1.82211 32.8132 4.03125 32.8132H26.9688C29.1779 32.8132 30.9688 31.0224 30.9688 28.8132V4.73242C30.9688 2.52328 29.1779 0.732422 26.9688 0.732422H4.03125ZM4.84375 3.64886C3.73918 3.64886 2.84375 4.54429 2.84375 5.64886V27.8968C2.84375 29.0013 3.73918 29.8968 4.84375 29.8968H26.1562C27.2608 29.8968 28.1562 29.0013 28.1562 27.8968V5.64886C28.1562 4.54429 27.2608 3.64886 26.1562 3.64886H4.84375Z" fill="#F24E1E"/>
</svg>
