<svg width="32" height="32" viewBox="0 0 32 32" fill="none" xmlns="http://www.w3.org/2000/svg">
<path d="M6.05537 0.1875C4.50098 0.193557 3.01198 0.813723 1.91285 1.91285C0.813723 3.01198 0.193557 4.50098 0.1875 6.05537V25.9446C0.193557 27.499 0.813723 28.988 1.91285 30.0871C3.01198 31.1863 4.50098 31.8064 6.05537 31.8125H25.9446C27.499 31.8064 28.988 31.1863 30.0871 30.0871C31.1863 28.988 31.8064 27.499 31.8125 25.9446V6.05537C31.8064 4.50098 31.1863 3.01198 30.0871 1.91285C28.988 0.813723 27.499 0.193557 25.9446 0.1875H6.05537ZM6.05537 3.0625H25.9446C26.3383 3.06021 26.7285 3.13606 27.0927 3.28566C27.4568 3.43525 27.7876 3.65562 28.066 3.93399C28.3444 4.21236 28.5647 4.5432 28.7143 4.90735C28.8639 5.27149 28.9398 5.66171 28.9375 6.05537V25.9446C28.9398 26.3383 28.8639 26.7285 28.7143 27.0927C28.5647 27.4568 28.3444 27.7876 28.066 28.066C27.7876 28.3444 27.4568 28.5647 27.0927 28.7143C26.7285 28.8639 26.3383 28.9398 25.9446 28.9375H6.05537C5.66165 28.94 5.27135 28.8643 4.90712 28.7147C4.54289 28.5652 4.21197 28.3448 3.93356 28.0664C3.65515 27.788 3.43479 27.4571 3.28526 27.0929C3.13574 26.7286 3.06002 26.3383 3.0625 25.9446V6.05537C3.06021 5.66171 3.13606 5.27149 3.28566 4.90735C3.43525 4.5432 3.65562 4.21236 3.93399 3.93399C4.21236 3.65562 4.5432 3.43525 4.90735 3.28566C5.27149 3.13606 5.66171 3.06021 6.05537 3.0625ZM15.5961 10.5806C14.5395 10.5706 13.6411 10.5806 13.1365 10.8279C12.7987 10.9918 12.5414 11.3612 12.6981 11.3784C12.895 11.4072 13.3377 11.5021 13.5749 11.8226C13.8768 12.2323 13.8667 13.1595 13.8667 13.1595C13.8667 13.1595 14.0349 15.7082 13.4556 16.0288C13.0574 16.2473 12.5126 15.8031 11.3339 13.7762C10.733 12.7326 10.2788 11.5811 10.2788 11.5811C10.2788 11.5811 10.1925 11.3669 10.0373 11.2548C9.84606 11.1154 9.58156 11.0694 9.58156 11.0694L6.76837 11.0866C6.76837 11.0866 6.34719 11.1039 6.19625 11.2836C6.05538 11.4517 6.18475 11.7824 6.18475 11.7824C6.18475 11.7824 8.38556 16.9315 10.8782 19.5262C13.1638 21.9081 15.7585 21.75 15.7585 21.75H16.9373C16.9373 21.75 17.2909 21.7112 17.4706 21.52C17.6402 21.3403 17.6344 21.0025 17.6344 21.0025C17.6344 21.0025 17.6114 19.4256 18.3417 19.1898C19.0662 18.9641 19.9862 20.7164 20.9694 21.3906C21.7169 21.9009 22.2833 21.7888 22.2833 21.7888L24.9125 21.75C24.9125 21.75 26.2824 21.6652 25.6313 20.5813C25.5809 20.4979 25.2546 19.7849 23.6834 18.3244C22.0317 16.7978 22.2517 17.0451 24.2383 14.4001C25.4458 12.7886 25.9288 11.8054 25.7764 11.3784C25.6327 10.9802 24.7443 11.0866 24.7443 11.0866L21.7845 11.1039C21.7845 11.1039 21.566 11.0751 21.4036 11.1714C21.2919 11.2544 21.2029 11.3641 21.1448 11.4906C21.1448 11.4906 20.6733 12.7369 20.0494 13.7992C18.7356 16.0331 18.2023 16.1567 17.9895 16.0172C17.4893 15.6909 17.6129 14.7134 17.6129 14.0234C17.6129 11.8499 17.9435 10.9515 16.9732 10.7172C16.6526 10.6381 16.4169 10.5878 15.5975 10.5806H15.5961Z" fill="#F24E1E"/>
</svg>
