<svg width="31" height="33" viewBox="0 0 31 33" fill="none" xmlns="http://www.w3.org/2000/svg">
<path fill-rule="evenodd" clip-rule="evenodd" d="M4.03125 0.732422C1.82211 0.732422 0.03125 2.52328 0.03125 4.73242V28.8132C0.03125 31.0224 1.82211 32.8132 4.03125 32.8132H26.9688C29.1779 32.8132 30.9688 31.0224 30.9688 28.8132V4.73242C30.9688 2.52328 29.1779 0.732422 26.9688 0.732422H4.03125ZM4.84375 3.64886C3.73918 3.64886 2.84375 4.54429 2.84375 5.64886V27.8968C2.84375 29.0013 3.73918 29.8968 4.84375 29.8968H26.1562C27.2608 29.8968 28.1562 29.0013 28.1562 27.8968V5.64886C28.1562 4.54429 27.2608 3.64886 26.1562 3.64886H4.84375Z" fill="#F24E1E"/>
<path d="M6.75351 26.25L7.93651 21.903C7.15701 20.5667 6.74747 19.047 6.75001 17.5C6.75001 12.6674 10.6674 8.75 15.5 8.75C20.3326 8.75 24.25 12.6674 24.25 17.5C24.25 22.3326 20.3326 26.25 15.5 26.25C13.9537 26.2525 12.4346 25.8433 11.0988 25.0644L6.75351 26.25ZM12.3421 13.3945C12.2291 13.4015 12.1187 13.4313 12.0175 13.482C11.9226 13.5358 11.8359 13.6029 11.7603 13.6815C11.6553 13.7804 11.5958 13.8661 11.5319 13.9492C11.2085 14.3701 11.0345 14.8867 11.0375 15.4175C11.0393 15.8463 11.1513 16.2636 11.3263 16.6539C11.6841 17.4431 12.273 18.2787 13.0509 19.0531C13.2381 19.2395 13.421 19.4268 13.6179 19.6009C14.5834 20.4509 15.7339 21.0639 16.9779 21.3911L17.4758 21.4673C17.6376 21.476 17.7995 21.4637 17.9623 21.4559C18.2171 21.4427 18.4659 21.3737 18.6911 21.2538C18.8057 21.1947 18.9175 21.1305 19.0263 21.0612C19.0263 21.0612 19.0639 21.0367 19.1356 20.9825C19.2538 20.895 19.3264 20.8329 19.4244 20.7305C19.497 20.6553 19.56 20.5669 19.6081 20.4663C19.6764 20.3236 19.7446 20.0515 19.7726 19.8249C19.7936 19.6516 19.7875 19.5571 19.7849 19.4985C19.7814 19.4049 19.7035 19.3077 19.6186 19.2666L19.1094 19.0382C19.1094 19.0382 18.3481 18.7066 17.8835 18.4949C17.8345 18.4735 17.782 18.4614 17.7286 18.459C17.6688 18.4529 17.6083 18.4596 17.5512 18.4788C17.4942 18.4979 17.4419 18.5291 17.3979 18.5701V18.5684C17.3935 18.5684 17.3349 18.6182 16.7023 19.3848C16.666 19.4335 16.6159 19.4704 16.5586 19.4907C16.5012 19.5109 16.4392 19.5137 16.3803 19.4985C16.3232 19.4833 16.2674 19.464 16.2131 19.4408C16.1046 19.3953 16.067 19.3778 15.9926 19.3454L15.9883 19.3436C15.4877 19.1251 15.0242 18.8299 14.6145 18.4686C14.5043 18.3724 14.4019 18.2674 14.2969 18.1659C13.9526 17.8362 13.6526 17.4633 13.4044 17.0564L13.3528 16.9732C13.3157 16.9174 13.2857 16.8571 13.2635 16.7939C13.2303 16.6652 13.3169 16.562 13.3169 16.562C13.3169 16.562 13.5295 16.3292 13.6284 16.2032C13.7107 16.0985 13.7875 15.9896 13.8585 15.8769C13.9618 15.7106 13.9941 15.54 13.9399 15.4079C13.6949 14.8094 13.4411 14.2135 13.1804 13.622C13.1288 13.5047 12.9756 13.4207 12.8365 13.4041C12.7893 13.3989 12.742 13.3936 12.6948 13.3901C12.5773 13.3843 12.4595 13.3855 12.3421 13.3936V13.3945Z" fill="#F24E1E"/>
</svg>
