<svg width="50" height="50" viewBox="0 0 50 50" fill="none" xmlns="http://www.w3.org/2000/svg">
<circle r="25" transform="matrix(-1 0 0 1 25 25)" fill="#0C1117" fill-opacity="0.4"/>
<path d="M17.4007 39.8647C17.1438 39.6339 17 39.3241 17 39.0015C17 38.6789 17.1438 38.369 17.4007 38.1382L31.7518 25.2178L17.4007 12.2999C17.1438 12.0691 17 11.7593 17 11.4366C17 11.114 17.1438 10.8042 17.4007 10.5734C17.5255 10.4608 17.6748 10.3714 17.8397 10.3103C18.0046 10.2492 18.1818 10.2178 18.3608 10.2178C18.5397 10.2178 18.7169 10.2492 18.8818 10.3103C19.0467 10.3714 19.196 10.4608 19.3208 10.5734L34.5819 24.3157C34.85 24.5571 35 24.8808 35 25.2178C35 25.5548 34.85 25.8785 34.5819 26.1198L19.3208 39.8622C19.196 39.9747 19.0467 40.0641 18.8818 40.1252C18.7169 40.1863 18.5397 40.2178 18.3608 40.2178C18.1818 40.2178 18.0046 40.1863 17.8397 40.1252C17.6748 40.0641 17.5255 39.9747 17.4007 39.8622L17.4007 39.8647Z" fill="white"/>
</svg>
