<svg width="19" height="19" viewBox="0 0 19 19" fill="none" xmlns="http://www.w3.org/2000/svg">
<path d="M8.84314 4.07143C8.66317 4.07143 8.49058 4.14292 8.36332 4.27018C8.23606 4.39743 8.16457 4.57003 8.16457 4.75C8.16457 4.92997 8.23606 5.10257 8.36332 5.22982C8.49058 5.35708 8.66317 5.42857 8.84314 5.42857H12.6119L6.98386 11.0553C6.92077 11.1184 6.87072 11.1933 6.83658 11.2757C6.80243 11.3581 6.78486 11.4465 6.78486 11.5357C6.78486 11.6249 6.80243 11.7133 6.83658 11.7957C6.87072 11.8782 6.92077 11.9531 6.98386 12.0161C7.04695 12.0792 7.12185 12.1293 7.20428 12.1634C7.28671 12.1976 7.37506 12.2151 7.46429 12.2151C7.55351 12.2151 7.64186 12.1976 7.72429 12.1634C7.80672 12.1293 7.88162 12.0792 7.94471 12.0161L13.5714 6.38807V10.1569C13.5714 10.3368 13.6429 10.5094 13.7702 10.6367C13.8974 10.7639 14.07 10.8354 14.25 10.8354C14.43 10.8354 14.6026 10.7639 14.7298 10.6367C14.8571 10.5094 14.9286 10.3368 14.9286 10.1569V4.75C14.9286 4.57003 14.8571 4.39743 14.7298 4.27018C14.6026 4.14292 14.43 4.07143 14.25 4.07143H8.84314ZM13.2539 19C14.0621 19.0002 14.8439 18.7119 15.4584 18.1869C16.073 17.6619 16.4799 16.9348 16.606 16.1364C17.2993 15.9226 17.9059 15.4923 18.3367 14.9086C18.7676 14.3248 19 13.6184 19 12.8929V3.39286C19 2.49302 18.6425 1.63003 18.0063 0.993745C17.37 0.357461 16.507 4.45709e-09 15.6071 4.45709e-09H6.10714C5.37361 -3.7575e-05 4.6598 0.237561 4.07262 0.677213C3.48543 1.11687 3.05648 1.73491 2.85 2.43879C2.05436 2.56775 1.33062 2.97576 0.808403 3.58973C0.286188 4.20371 -0.000388887 4.98355 3.96077e-07 5.78957V14.25C3.96077e-07 15.5098 0.500446 16.718 1.39124 17.6088C2.28204 18.4996 3.49022 19 4.75 19H13.2539ZM1.35714 5.78957C1.35664 5.36818 1.48692 4.95702 1.73 4.61282C1.97309 4.26861 2.317 4.00832 2.71429 3.86786V12.8929C2.71429 13.7927 3.07175 14.6557 3.70803 15.292C4.34432 15.9283 5.2073 16.2857 6.10714 16.2857H15.1729C15.0325 16.6826 14.7727 17.0262 14.429 17.2692C14.0853 17.5123 13.6748 17.6428 13.2539 17.6429H4.75C3.85016 17.6429 2.98717 17.2854 2.35089 16.6491C1.7146 16.0128 1.35714 15.1498 1.35714 14.25V5.78957ZM6.10714 1.35714H15.6071C16.147 1.35714 16.6648 1.57162 17.0466 1.95339C17.4284 2.33516 17.6429 2.85295 17.6429 3.39286V12.8929C17.6429 13.4328 17.4284 13.9506 17.0466 14.3323C16.6648 14.7141 16.147 14.9286 15.6071 14.9286H6.10714C5.56724 14.9286 5.04945 14.7141 4.66768 14.3323C4.2859 13.9506 4.07143 13.4328 4.07143 12.8929V3.39286C4.07143 2.85295 4.2859 2.33516 4.66768 1.95339C5.04945 1.57162 5.56724 1.35714 6.10714 1.35714Z" fill="white"/>
</svg>
