<svg width="8" height="16" viewBox="0 0 8 16" fill="none" xmlns="http://www.w3.org/2000/svg">
<path d="M7.82192 15.1078C7.93609 15.0077 8 14.8735 8 14.7337C8 14.5939 7.93609 14.4596 7.82192 14.3596L1.44365 8.76074L7.82192 3.163C7.93609 3.06299 8 2.92873 8 2.78892C8 2.64912 7.93609 2.51486 7.82192 2.41484C7.76643 2.36608 7.70008 2.32731 7.62679 2.30085C7.55351 2.27438 7.47477 2.26075 7.39522 2.26074C7.31567 2.26074 7.23693 2.27438 7.16365 2.30085C7.09036 2.32731 7.02401 2.36608 6.96852 2.41484L0.185801 8.36986C0.0666729 8.47444 5.93552e-07 8.6147 5.80509e-07 8.76074C5.67467e-07 8.90678 0.0666729 9.04704 0.185801 9.15162L6.96852 15.1066C7.02401 15.1554 7.09036 15.1942 7.16364 15.2206C7.23693 15.2471 7.31567 15.2607 7.39522 15.2607C7.47477 15.2607 7.55351 15.2471 7.62679 15.2206C7.70008 15.1942 7.76643 15.1554 7.82192 15.1066L7.82192 15.1078Z" fill="white"/>
</svg>
